<?xml version="1.0" encoding="utf-8"?>
<!-- Generator: Adobe Illustrator 21.0.0, SVG Export Plug-In . SVG Version: 6.00 Build 0)  -->
<svg version="1.1" id="Layer_1" xmlns="http://www.w3.org/2000/svg" xmlns:xlink="http://www.w3.org/1999/xlink" x="0px" y="0px"
	 viewBox="0 0 419.5 419.5" style="enable-background:new 0 0 419.5 419.5;" xml:space="preserve">
<style type="text/css">
	.st0{fill:#0A66C2;}
</style>
<g>
	<path class="st0" d="M109.4,95.5c2.5-0.8,5-0.2,7.5-0.3c2.7-0.1,5.3,0,8,0s5.3,0,8,0c2.6,0,5.2,0,7.8,0c0-0.2,0-0.5,0-0.7
		c-2.1-0.2-4.1-0.5-6.2-0.7c-1.3-0.1-1.7-0.7-1.3-1.8c3.2,0,6.5-0.1,9.7,0c16.4,0.4,32.8,0.8,49.1,1.3c22.5,0.7,44.8,3.4,66.9,7.9
		c7.4,1.5,14.9,2.6,22.3,4.5c10.6,2.7,20.2,7.7,28.5,14.9c10.3,8.9,13.7,20.3,9.7,33.2c-3.4,11-7.8,21.6-12.3,32.2
		c-12,28.5-27.5,55.1-44,81.2c-6,9.5-12,18.9-18.1,28.3c-12,18.6-29.2,29.4-51.2,31.6c-20.8,2.1-39.2-4.2-54.5-18.6
		c-15.2-14.3-22.5-32.2-22.4-53c0.1-17.1,6.5-31.9,17.1-45c11-13.6,24.3-24.6,38.7-34.3c19.9-13.3,39.9-26.4,59.7-39.7
		c2.8-1.9,5.4-4,7.7-6.5c4-4.4,3.7-9.3-0.5-13.5c-4.8-4.7-10.7-7.1-17.2-8.2c-22.1-4-44.2-7.2-66.5-9.4c-12.7-1.2-25.5-1.6-38.2-2.4
		c-2.8-0.2-5.5-0.3-8.3-0.4C109.5,96,109.5,95.7,109.4,95.5z M226.8,311.1c-1.5-0.4-2.7-0.9-3.9-0.9c-4.9-0.2-6.5-3-7.6-7.6
		c-1.6-6.7-0.2-11.6,5.5-15.5c4.1-2.8,8-6,11.9-9.1c2.3-1.8,4-4.2,4.1-7.2c0.2-5.8,0.3-11.5,0.1-17.3c0-2.5-1.2-4.4-3.9-5.3
		c-7.4-2.5-14.8-5.2-22.2-7.7c-1.3-0.4-1.9-1.1-2.2-2.3c-1.3-5.4-2.6-10.8-4-16.2c-1.1-4.4-2.2-8.9-3.3-13.4
		c0.5-0.2,0.8-0.3,1.1-0.4c7.1-1.6,14.3-3.2,21.4-4.7c0.4-0.1,1.2,0.3,1.5,0.7c6.1,7.5,12,15.2,18.3,22.4c2.8,3.1,2.8,5.4,0.8,8.8
		c-2,3.4-3.9,7.1-4.7,11c-1.8,8.6-2,17.5-1.1,26.3c0.1,1.2,0.8,2.6,1.7,3.3c2.6,2.2,5.5,4,8.3,6.1c0.4-1,0.8-1.7,1.1-2.4
		c3.8-9.5,4.7-19.4,3.6-29.5c-1.2-11.3-4.7-21.8-10.9-31.4c-4.3-6.6-9.7-12.1-16.7-15.9c-0.9-0.5-2-0.9-2.8-1.5
		c-2.5-1.8-4.7-4.1-7.4-5.6c-9.9-5.4-20.6-7.3-31.7-6.6c-3.2,0.2-6.4,1.1-10,1.7c2.9,4.7,5.4,8.8,8,13.1
		c-7.8,6.1-15.4,12.1-23.1,18.1c-0.4,0.3-1,0.5-1.4,0.4c-5.9-0.9-11.8-1.8-17.7-2.8c0-2.8-0.1-5.5,0-8.2c0-1.3-0.3-2-1.8-2.1
		c-3.2,5.1-6.6,10.3-9.8,15.5c-1.5,2.4-2.8,4.8-4,7.3c-2.1,4.5-1.6,8.9,1.4,12.8c2.3,3,3.5,6.3,4,10c0.8,5.1,1.8,10.1,6.4,13.4
		c0,0,0.1,0.1,0.1,0.2c-3.9,2.9-5.8,7-7.4,11.4c-1.6,4.3-1.5,8.3,1.3,12.3c3.8,5.5,7.2,11.3,12.7,15.3c2,1.4,4.4,2.9,6.7,3
		c5.6,0.3,11.3-0.2,17.3-0.4c0.3-4.1,0.9-7.8,0.8-11.5c-0.2-4.8-3-8.8-5.9-12.4c-3.9-5-8-9.9-12-14.8c-0.6-0.8-1.1-1.3-0.4-2.5
		c4.3-7.3,8.5-14.7,12.7-22c0.5-0.9,1-1.2,2.1-0.9c8.6,2.7,17.2,5.3,25.8,7.9c1.1,0.3,1.5,0.8,1.6,2c0.8,6.8,1.7,13.5,2.6,20.2
		c0.4,3.4,0.8,6.8,1.2,10.2c-0.5,0.2-0.8,0.3-1.1,0.3c-6.5,1.6-13.1,3.1-19.6,4.7c-3.2,0.8-5.7,2.5-6.2,5.9
		c-1.5,8.9,0.8,13.3,8.1,16.3c2.4,1,4.9,1.7,7.3,2.6c2.8,1.1,5.1,2.9,6,5.9c0.3,1,0.5,2,0.7,3C203.8,323.7,216,319.9,226.8,311.1z
		 M234.4,204.2c0.5-0.4,0.9-0.7,1.2-1c9.2-9,18.4-18.1,26.4-28.3c7.3-9.3,13.3-19.4,17.3-30.7c4.3-12.3,1.3-20.5-9.7-27.3
		c-6.1-3.7-12.6-6.7-19.3-9c-11.3-3.9-22.9-5.9-34.7-7.4c-3.6-0.5-7.2-0.9-10.8-1.3c0.7,0.5,1.4,0.7,2.1,0.9
		c8.5,1.9,17.1,3.8,25.5,5.9c3,0.7,5.9,1.9,8.6,3.5c7.3,4.2,9.7,13.2,5.8,20.6c-2.3,4.5-6,7.8-10.1,10.6
		c-20.2,14.4-40.4,28.8-60.6,43.2c-0.5,0.4-1.1,0.8-2,1.4c4.3,0.5,8,0.9,11.8,1.3c6.8,0.6,13.5,1.3,20.3,1.7
		c3.6,0.2,6.9-0.9,9.6-3.5c2.2-2.1,4.6-4,6.8-6.1c8-7.2,15.9-14.5,23.9-21.7c0.8-0.7,1.5-1.4,2.1,0.1c-9.9,12-19.9,23.9-29.9,36
		C224,197,229.2,200.6,234.4,204.2z M290.7,179.8c0.2,0.1,0.3,0.2,0.5,0.4c-1.6,3.2-2.9,6.5-4.8,9.5c-9.3,14.1-18.7,28.2-28.1,42.2
		c-2.5,3.7-3.7,7.7-3.2,12.1c0.6,4.4,1.1,8.9,1.7,13.3c0.1,0.8,0.8,1.4,1.4,2.3c0.5-0.7,0.8-1.1,1-1.4c7.4-12.1,14.8-24.2,22.2-36.3
		c13-21.2,24.2-43.3,31.3-67.2c3.6-12,1.3-23.1-8.6-31.6c-9.7-8.3-20.9-13.6-33.3-16.2c-2.5-0.5-5.1-0.6-7.6-0.9
		c0,0.2-0.1,0.4-0.1,0.6c0.6,0.3,1.1,0.6,1.7,0.9c3.8,2.2,7.8,4.2,11.3,6.7c10.9,7.8,14.3,18.2,10,30.9
		c-3.7,11.1-8.6,21.7-15.7,31.1c-8.5,11.1-17.4,21.7-26.2,32.5c-2.8,3.5-2.9,3.5-0.6,7.2c2.8,4.6,5.7,9.2,8.7,14
		C265.3,213,278,196.4,290.7,179.8z"/>
</g>
</svg>
