<?xml version="1.0" encoding="utf-8"?>
<!-- Generator: Adobe Illustrator 21.0.0, SVG Export Plug-In . SVG Version: 6.00 Build 0)  -->
<svg version="1.1" id="Layer_1" xmlns="http://www.w3.org/2000/svg" xmlns:xlink="http://www.w3.org/1999/xlink" x="0px" y="0px"
	 viewBox="0 0 419.5 419.5" style="enable-background:new 0 0 419.5 419.5;" xml:space="preserve">
<style type="text/css">
	.st0{fill:#003049;}
</style>
<g>
	<path class="st0" d="M177.5,156.7c1.2,0.1,2.3,0.1,3.5,0.2c7.9,0.3,15.9,0.5,23.8,0.9c6.4,0.3,12.8,1.6,19.1,2.8
		c2.1,0.4,4.3,0.8,6.4,1.3c4.6,1.2,8.9,3.3,12.3,6.7c3.2,3.3,4.1,7.3,2.7,11.6c-1.3,4.1-3,8.2-4.6,12.2
		c-4.5,10.7-10.4,20.8-16.6,30.6c-2.2,3.5-4.5,7.1-6.8,10.6c-5.4,8.3-13.1,12.3-22.9,12.1c-6.5-0.1-12.2-2.6-17-7.1
		c-5.7-5.4-8.5-12.1-8.5-19.9c0-6.1,2.2-11.5,5.9-16.4c4.2-5.5,9.5-9.8,15.2-13.7c7.5-5,15-9.9,22.5-14.9c1.1-0.7,2.1-1.6,3-2.6
		c1.4-1.5,1.2-3.4-0.2-4.9c-1.8-1.8-4.1-2.7-6.6-3.2c-8.5-1.6-17.1-2.8-25.7-3.6c-4.6-0.5-9.2-0.6-13.7-0.8c-1-0.1-2.1-0.1-3.1-0.2
		c0-0.1,0-0.2,0-0.3c0.2,0,0.5-0.1,0.7-0.1c3.4,0,6.9,0,10.3,0c0.3,0,0.5,0,0.8,0c0-0.1,0-0.2,0-0.3c-0.9-0.1-1.9-0.2-2.8-0.3
		c0-0.3-0.1-0.5-0.1-0.7C175.8,156.7,176.7,156.7,177.5,156.7z M196.6,244.7c5.1-0.5,9.7-1.9,13.8-5.2c-0.5-0.1-1-0.3-1.4-0.3
		c-1.9-0.1-2.5-1.1-2.9-2.9c-0.6-2.5-0.1-4.4,2.1-5.8c1.5-1.1,3-2.2,4.4-3.4c0.9-0.7,1.6-1.6,1.6-2.8c0.1-2.2,0.1-4.3,0.1-6.5
		c0-0.9-0.5-1.7-1.5-2c-2.7-0.9-5.4-1.9-8.2-2.8c-0.6-0.2-0.9-0.5-1.1-1.2c-0.4-1.9-0.9-3.8-1.4-5.7c-0.4-1.7-0.9-3.5-1.3-5.3
		c0.3-0.1,0.5-0.1,0.7-0.2c2.5-0.6,5.1-1.1,7.6-1.7c0.4-0.1,0.6,0,0.8,0.3c2.2,2.8,4.5,5.5,6.7,8.3c1.3,1.6,1.3,1.6,0.3,3.5
		c-0.7,1.3-1.4,2.7-1.7,4.1c-0.7,3.3-0.8,6.6-0.4,9.9c0,0.4,0.2,0.9,0.5,1.1c1,0.8,2.1,1.6,3.2,2.4c0.2-0.4,0.3-0.7,0.4-0.9
		c1.4-3.6,1.8-7.3,1.4-11.1c-0.4-4.2-1.7-8.1-4-11.7c-1.6-2.5-3.7-4.6-6.3-6.1c-0.4-0.2-0.8-0.4-1.1-0.6c-0.9-0.7-1.7-1.5-2.7-2.1
		c-3.7-2.1-7.8-2.8-12-2.5c-1.2,0.1-2.4,0.4-3.8,0.6c1.1,1.8,2,3.3,3,4.9c-2.9,2.3-5.8,4.5-8.7,6.8c-0.2,0.1-0.4,0.2-0.6,0.2
		c-2.2-0.3-4.4-0.7-6.6-1c0-1.1,0-2.1,0-3.1c0-0.5-0.1-0.7-0.7-0.8c-1.2,2-2.5,3.9-3.7,5.9c-0.5,0.9-1,1.8-1.5,2.7
		c-0.8,1.7-0.6,3.4,0.5,4.8c0.9,1.1,1.3,2.4,1.5,3.8c0.3,1.9,0.7,3.8,2.4,5c0,0,0,0.1,0.1,0.1c-1.4,1-2.1,2.4-2.7,3.9
		c-0.7,1.8-0.7,3.5,0.5,5.2c1.4,2,2.7,4.1,4.7,5.6c0.7,0.5,1.6,1.1,2.5,1.1c2.2,0.1,4.3-0.1,6.6-0.2c0.1-1.6,0.3-3.1,0.2-4.6
		c0-1.3-0.7-2.5-1.5-3.5c-1.7-2.2-3.5-4.4-5.2-6.5c-0.2-0.3-0.4-0.5-0.2-0.9c1.6-2.8,3.2-5.6,4.8-8.4c0.2-0.4,0.4-0.4,0.8-0.3
		c3.2,1,6.5,2,9.7,3c0.4,0.1,0.6,0.3,0.6,0.8c0.3,2.5,0.6,5.1,1,7.6c0.2,1.3,0.3,2.5,0.5,3.9c-2.4,0.5-4.7,1.1-7,1.6
		c-2.6,0.5-3.6,1.7-3.3,4.3c0,0.1,0,0.2,0,0.4c0.1,1.5,0.7,2.6,2,3.3c1,0.5,2.1,0.9,3.2,1.3C195.2,241.6,196.5,242.6,196.6,244.7z
		 M202.1,159.6c0,0.1,0,0.1,0,0.2c2.1,0.4,4.2,0.8,6.3,1.4c2.2,0.6,4.5,1.1,6.6,1.9c3.8,1.6,4.9,5.8,2.4,9.1
		c-1.1,1.4-2.4,2.6-3.9,3.6c-7.3,5.3-14.8,10.5-22.1,15.8c-0.2,0.1-0.4,0.3-0.7,0.6c0.4,0.1,0.7,0.1,0.9,0.1
		c1.2,0.1,2.4,0.3,3.6,0.4c2.5,0.2,5,0.5,7.5,0.6c1.4,0.1,2.6-0.4,3.7-1.3c1.2-1.1,2.5-2.2,3.7-3.3c2.6-2.4,5.3-4.8,7.9-7.2
		c0.3-0.3,0.5-0.5,0.8,0.1c-3.7,4.5-7.5,9-11.3,13.6c2,1.4,4,2.7,5.9,4.1c0.1-0.1,0.3-0.2,0.4-0.3c3.9-3.8,7.8-7.7,11.1-12.1
		c2.5-3.4,4.5-7,5.7-11c1.2-4,0.2-7-3.4-9.2c-1.9-1.2-4-2.2-6.1-3.1c-4.3-1.8-8.9-2.6-13.6-3.3C205.5,160,203.8,159.8,202.1,159.6z
		 M222.2,220c0.2-0.3,0.3-0.4,0.3-0.5c2.8-4.6,5.6-9.2,8.4-13.7c4.9-8,9-16.4,11.8-25.3c1.4-4.4,0-9.2-3.6-12.2
		c-3-2.4-6.3-4.1-10-5.3c-1.7-0.5-3.4-0.9-5.2-0.8c0.2,0.2,0.4,0.3,0.6,0.4c1.4,0.8,2.9,1.6,4.3,2.5c4.2,3,5.4,6.9,3.8,11.8
		c-1.7,5.2-4.4,10-7.8,14.3c-2.8,3.5-5.7,6.9-8.6,10.4c-0.3,0.4-0.4,0.6-0.1,1.1c0.7,1.1,1.4,2.3,2.1,3.4c0.5,0.9,1.1,1.8,1.7,2.7
		c4.9-6.3,9.7-12.6,14.5-18.8c0.1,0,0.1,0.1,0.2,0.1c-0.6,1.2-1,2.4-1.7,3.4c-3.5,5.4-7.1,10.7-10.7,16c-0.9,1.4-1.4,2.9-1.2,4.6
		c0.2,1.7,0.4,3.3,0.7,5C221.7,219.5,222,219.7,222.2,220z"/>
</g>
</svg>
